<svg xmlns="http://www.w3.org/2000/svg" xmlns:xlink="http://www.w3.org/1999/xlink" width="500" zoomAndPan="magnify" viewBox="0 0 375 374.999991" height="500" preserveAspectRatio="xMidYMid meet" version="1.0"><path fill="#12cf8a" d="M 323.566406 68.09375 C 306.324219 42.550781 275.203125 54.539062 253.398438 65.234375 C 237.675781 72.886719 222.464844 82.246094 208.3125 92.570312 C 197.570312 100.457031 218.777344 128.300781 229.839844 120.234375 C 243.210938 110.460938 257.5 101.699219 272.207031 94.230469 C 273.542969 93.539062 274.882812 92.894531 276.21875 92.25 C 276.402344 92.15625 276.910156 91.925781 277.277344 91.742188 C 277.695312 91.558594 278.109375 91.375 278.523438 91.1875 C 281.382812 89.898438 284.285156 88.699219 287.238281 87.59375 C 292.355469 85.65625 297.65625 84.089844 303.050781 83.214844 C 304.0625 83.027344 305.125 82.9375 306.136719 82.84375 C 306.09375 83.535156 306.046875 84.226562 305.953125 84.917969 C 305.675781 88.054688 305.125 91.144531 304.480469 94.230469 C 303.601562 98.472656 303.09375 99.996094 301.574219 104.882812 C 294.75 126.550781 284.609375 147.203125 274.097656 167.304688 C 273.5 160.433594 272.898438 153.566406 272.300781 146.648438 C 271.148438 133.1875 250.261719 133.140625 251.460938 146.742188 C 253.027344 164.535156 254.550781 182.378906 256.070312 200.171875 C 256.53125 205.519531 260.542969 211.238281 266.535156 210.730469 C 284.195312 209.164062 301.757812 207.59375 319.414062 206.027344 C 332.738281 204.875 332.785156 183.761719 319.324219 184.914062 C 313.285156 185.421875 307.199219 186.019531 301.113281 186.527344 C 312.777344 163.984375 323.519531 140.75 329.878906 116.128906 C 334.214844 99.074219 333.570312 82.9375 323.566406 68.09375 Z M 323.566406 68.09375 " fill-opacity="1" fill-rule="nonzero"/><path fill="#12cf8a" d="M 248.371094 228.066406 C 232.746094 248.902344 217.070312 269.695312 201.441406 290.53125 C 186.503906 272.921875 171.613281 255.355469 156.675781 237.746094 C 162.253906 237.46875 167.832031 237.148438 173.410156 236.871094 C 186.042969 236.179688 186.089844 216.261719 173.367188 216.90625 C 157.828125 217.738281 142.292969 218.566406 126.757812 219.398438 C 121.59375 219.675781 116.660156 223.777344 116.9375 229.402344 C 117.765625 245.769531 118.597656 262.132812 119.472656 278.546875 C 120.164062 291.316406 139.851562 291.363281 139.160156 278.5 C 138.882812 272.550781 138.558594 266.652344 138.238281 260.703125 C 155.894531 281.542969 173.597656 302.378906 191.253906 323.21875 C 197.0625 330.085938 210.707031 332.4375 216.703125 324.464844 C 236.203125 298.507812 255.609375 272.597656 275.113281 246.691406 C 286.636719 231.382812 258.976562 213.910156 248.371094 228.066406 Z M 248.371094 228.066406 " fill-opacity="1" fill-rule="nonzero"/><path fill="#12cf8a" d="M 71.804688 97.089844 C 71.894531 96.492188 72.082031 95.292969 72.21875 94.738281 C 72.449219 93.726562 72.816406 92.800781 73.1875 91.835938 C 73.234375 91.648438 73.277344 91.558594 73.371094 91.417969 C 73.417969 91.328125 73.464844 91.28125 73.507812 91.234375 C 74.015625 90.453125 74.664062 89.761719 75.308594 89.113281 C 75.355469 89.070312 75.445312 89.023438 75.492188 88.976562 C 76.230469 88.5625 76.96875 88.238281 77.75 87.914062 C 78.121094 87.824219 78.441406 87.730469 78.765625 87.730469 C 79.320312 87.640625 79.917969 87.546875 80.515625 87.5 C 81.117188 87.546875 83.097656 87.546875 83.789062 87.59375 C 85.402344 87.730469 86.972656 88.054688 88.539062 88.375 C 88.769531 88.421875 89.09375 88.515625 89.460938 88.605469 C 89.96875 88.746094 90.429688 88.882812 90.9375 89.023438 C 95.175781 90.265625 99.28125 91.835938 103.335938 93.539062 C 105.226562 94.324219 107.117188 95.199219 109.007812 96.074219 C 109.238281 96.167969 111.265625 97.136719 111.589844 97.320312 C 112.925781 98.011719 114.261719 98.65625 115.554688 99.347656 C 126.664062 105.15625 137.453125 111.75 148.011719 118.574219 C 145.199219 118.804688 142.339844 119.082031 139.527344 119.3125 C 132.289062 119.957031 126.203125 125.027344 126.25 132.863281 C 126.25 139.78125 132.382812 146.972656 139.621094 146.328125 C 152.941406 145.128906 166.265625 143.976562 179.589844 142.777344 C 186.367188 142.175781 193.558594 137.015625 192.914062 129.269531 C 191.761719 115.761719 190.5625 102.300781 189.410156 88.792969 C 188.765625 81.460938 183.785156 75.332031 176.039062 75.332031 C 169.214844 75.332031 162.117188 81.507812 162.761719 88.882812 C 163.132812 93.078125 163.5 97.226562 163.867188 101.421875 C 162.808594 100.546875 161.75 99.71875 160.6875 99.074219 C 138.929688 84.734375 115.648438 69.980469 90.613281 62.375 C 76.96875 58.132812 60.371094 55.367188 48.984375 66.0625 C 40.914062 73.625 40.777344 87.363281 42.113281 97.550781 C 44.003906 111.84375 48.339844 125.535156 53.59375 138.949219 C 62.078125 160.527344 72.171875 181.6875 83.835938 201.695312 C 87.894531 208.703125 95.914062 215.433594 104.535156 214.328125 C 112.605469 213.265625 113.527344 204.277344 110.023438 198.238281 C 100.894531 182.5625 92.78125 166.148438 85.542969 149.460938 C 84.851562 147.894531 84.207031 146.328125 83.515625 144.714844 C 83.375 144.4375 83.285156 144.207031 83.191406 143.929688 C 83.054688 143.515625 82.867188 143.054688 82.730469 142.777344 C 81.347656 139.320312 80.054688 135.863281 78.859375 132.359375 C 76.644531 125.949219 74.664062 119.496094 73.234375 112.902344 C 72.910156 111.472656 72.585938 109.953125 72.355469 108.523438 C 72.3125 108.386719 72.3125 108.292969 72.3125 108.15625 C 72.3125 107.925781 72.21875 107.601562 72.171875 107.140625 C 71.851562 104.375 71.664062 101.515625 71.757812 98.703125 C 71.757812 98.242188 71.804688 97.6875 71.804688 97.089844 Z M 71.804688 97.089844 " fill-opacity="1" fill-rule="nonzero"/></svg>